# xmcd
#
# Track frame offsets:
#	150
#	49975
#	78664
#	100000
#	162698
#
# Disc length: 2589 seconds
#
# Revision: 1
# Processed by: cddbd v1.5.2PL0 Copyright (c) Steve Scherf et al.
# Submitted via: audiograbber 1.83.01
#
DISCID=3d0a1b05
DTITLE=The Allman Brothes Band - Live 2006 Gilford
DYEAR=2006
DGENRE=Rock
TTITLE0=High Cost of Low Living
TTITLE1=Hot `lanta
TTITLE2=Midnight Rider
TTITLE3=Smokestack Lightning
TTITLE4=Come and Go Blues
EXTD=
EXTT0=
EXTT1=
EXTT2=
EXTT3=
EXTT4=
PLAYORDER=
